# xmcd
#
# Track frame offsets: 
#        150
#        14593
#        32388
#        48262
#        68956
#        86171
#        100006
#        110680
#        133984
#        145711
#        156777
#        174557
#        192003
#        203595
#        216537
#        229601
#        241594
#        253291
#        264847
#        275098
#        287550
#        300030
#        319965
#
# Disc length: 4450 seconds
#
# Revision: 2
# Processed by: cddbd v1.5.2PL0 Copyright (c) Steve Scherf et al.
# Submitted via: ExactAudioCopy v1.1
#
DISCID=45116017
DTITLE=Long John Baldry - Looking At Long John Baldry - The UA Years 1
DTITLE=964-1966 [CD1]
DYEAR=1900
DGENRE=R&B
TTITLE0=Got My Mojo Working (mono)
TTITLE1=Gee Baby, Ain't I Good To You (mono)
TTITLE2=Roll 'Em Pete (mono)
TTITLE3=You're Breaking My Heart (mono)
TTITLE4=Hoochie Coochie (mono)
TTITLE5=Everyday (I Have The Blues) (mono)
TTITLE6=Dimples (mono)
TTITLE7=Five Long Years (mono)
TTITLE8=My Babe (mono)
TTITLE9=TImes Are Getting Tougher Than Tough (mono)
TTITLE10=Goin' Down Slow (mono)
TTITLE11=Rock The Joint (mono)
TTITLE12=You'll Be Mine (mono)
TTITLE13=Up Above My Head I Hear Music In The Air (mono)
TTITLE14=I'm On To You Baby (mono)
TTITLE15=Goodbye Baby (mono)
TTITLE16=Someday Baby (mono)
TTITLE17=Getting Ready For The Heartbreak (mono)
TTITLE18=Alright, OK, You Win (mono)
TTITLE19=I'm On To you Baby (stereo)
TTITLE20=Up Above My Head I Hear Music In The Air (alt - take 3) (mono
TTITLE20=)
TTITLE21=Hoochie Coochie Man (Ottilie Patterson session) (mono)
TTITLE22=Got My Mojo Working  (Ottilie Patterson session) (mono)
EXTD=EMI  094635089929 Disc 1 (P) 2006
EXTT0=
EXTT1=
EXTT2=
EXTT3=
EXTT4=
EXTT5=
EXTT6=
EXTT7=
EXTT8=
EXTT9=
EXTT10=
EXTT11=
EXTT12=
EXTT13=
EXTT14=
EXTT15=
EXTT16=
EXTT17=
EXTT18=
EXTT19=
EXTT20=
EXTT21=
EXTT22=
PLAYORDER=
